<svg width="120" height="120" viewBox="0 0 120 120" fill="none" xmlns="http://www.w3.org/2000/svg">
<path d="M87.3678 18.2721L87.2797 18.1641L79.6137 14.0291L79.473 14.0134C79.3181 13.9964 77.9483 13.8827 77.3614 14.7964C77.0247 15.3221 77.0545 15.9985 77.4481 16.8071C76.0755 19.0195 68.9082 29.536 64.9082 35.3719C63.186 35.3392 57.2307 35.406 55.6279 37.8046C55.0936 38.6032 50.16 47.7641 44.8271 57.7222L46.1017 64.1676L54.0236 62.319L54.1003 70.7609L62.4257 66.5264L63.2883 75.6263L67.7685 75.1616C73.9142 63.8536 80.1735 52.2813 80.5956 51.281C81.7167 48.6252 78.4996 43.6191 77.5277 42.1911C80.2062 35.6262 85.0503 23.8621 86.1458 21.4991C87.0396 21.384 87.625 21.0372 87.8737 20.466C88.3156 19.4756 87.4659 18.3928 87.3678 18.2721ZM86.5764 19.8834V19.8863C86.5764 19.8863 86.4272 20.0795 85.6499 20.1165L85.2492 20.1335L85.0574 20.4888C84.587 21.3626 81.863 27.9033 79.5341 33.5516L70.8748 29.1595C74.3433 24.0653 78.413 18.0504 78.889 17.1708L79.0794 16.8156L78.8748 16.4703C78.4783 15.8024 78.5565 15.5779 78.5579 15.5779C78.6048 15.504 78.9089 15.4316 79.2002 15.4358L86.3419 19.2866C86.4954 19.5012 86.6147 19.801 86.5764 19.8834Z" fill="#B0B0B0"/>
<path d="M58.844 73.8325L52.0667 80.2604L49.5926 72.1883L42.5242 76.2132L39.469 70.3952C36.7087 83.7837 33.7222 98.4592 33.4984 99.5613L33.3852 100.139L33.9173 100.366C34.1019 100.446 38.5098 102.315 45.4207 103.994L48.4142 104.62L48.4371 104.625C55.4485 105.857 60.223 105.91 60.4308 105.917L61.0096 105.922L61.1303 105.355C61.341 104.374 63.8663 92.6129 66.4229 80.5917L62.2599 82.3114L58.8454 73.8324L58.844 73.8325Z" fill="#B0B0B0"/>
<path d="M38 65L36.5 57.5L31 57L33 61.5091L38 65Z" fill="#B0B0B0"/>
<path d="M67.9346 77.8691L74.1014 76.7888L77.6722 77.6984L79.0662 80.9089L73.3295 81.5608L68.0869 78.22" fill="#B0B0B0"/>
</svg>
