<svg viewBox="0 0 14 11" fill="none" xmlns="http://www.w3.org/2000/svg">
<path d="M2.79541 10.156C3.59941 10.156 4.33141 9.736 4.95541 9.22H4.99141L5.08741 10H5.98741V5.992C5.98741 4.384 5.31541 3.316 3.73141 3.316C2.68741 3.316 1.76341 3.784 1.16341 4.168L1.59541 4.924C2.11141 4.576 2.79541 4.228 3.55141 4.228C4.61941 4.228 4.89541 5.032 4.89541 5.872C2.12341 6.184 0.887406 6.892 0.887406 8.308C0.887406 9.484 1.70341 10.156 2.79541 10.156ZM3.10741 9.28C2.45941 9.28 1.95541 8.98 1.95541 8.236C1.95541 7.396 2.69941 6.856 4.89541 6.592V8.416C4.25941 8.98 3.74341 9.28 3.10741 9.28ZM9.22084 10.156C9.50884 10.156 9.70084 10.12 9.85684 10.06L9.70084 9.22C9.58084 9.244 9.53284 9.244 9.47284 9.244C9.30484 9.244 9.16084 9.112 9.16084 8.776V0.447999H8.06884V8.704C8.06884 9.628 8.40484 10.156 9.22084 10.156ZM12.6427 10.156C12.9307 10.156 13.1227 10.12 13.2787 10.06L13.1227 9.22C13.0027 9.244 12.9547 9.244 12.8947 9.244C12.7267 9.244 12.5827 9.112 12.5827 8.776V0.447999H11.4907V8.704C11.4907 9.628 11.8267 10.156 12.6427 10.156Z" fill="black"/>
</svg>
