<svg viewBox="0 0 25 18" fill="none" xmlns="http://www.w3.org/2000/svg">
<path d="M10.5 17.4H9.65874C9.79475 16.5672 10.1839 15.2434 10.9992 14.0203C12.0368 12.4639 13.7401 11.1 16.5 11.1C19.2627 11.1 21.0158 12.4671 22.1009 14.0297C22.9509 15.2537 23.3718 16.573 23.5216 17.4H22.5H10.5ZM19.2577 7.25772C18.5263 7.98911 17.5343 8.4 16.5 8.4C15.4657 8.4 14.4737 7.98911 13.7423 7.25772C13.0109 6.52633 12.6 5.53434 12.6 4.5C12.6 3.46566 13.0109 2.47368 13.7423 1.74228C14.4737 1.01089 15.4657 0.6 16.5 0.6C17.5343 0.6 18.5263 1.01089 19.2577 1.74228C19.9891 2.47368 20.4 3.46566 20.4 4.5C20.4 5.53434 19.9891 6.52632 19.2577 7.25772Z" stroke="black" stroke-width="1.2"/>
<path d="M6.37046 16.3484C6.2951 16.7203 6.23471 17.0882 6.19632 17.3999H1.5H1.49989L0.65876 17.4001C0.794785 16.5672 1.18391 15.2434 1.99924 14.0204C3.03684 12.4639 4.74015 11.0999 7.5 11.0999V11.0999L7.50697 11.0999C8.03959 11.0937 8.57088 11.1354 9.09451 11.2241C8.71011 11.611 8.36773 12.04 8.07634 12.4518C7.54923 13.1967 7.1558 13.9331 6.9539 14.3766C6.70328 14.9273 6.50512 15.6837 6.37046 16.3484Z" stroke="black" stroke-width="1.2"/>
<path d="M8.9769 7.47763C8.38616 8.06837 7.58494 8.40024 6.74951 8.40024C5.91408 8.40024 5.11286 8.06837 4.52213 7.47763C3.93139 6.88689 3.59951 6.08568 3.59951 5.25024C3.59951 4.41481 3.93139 3.6136 4.52213 3.02286C5.11286 2.43212 5.91408 2.10024 6.74951 2.10024C7.58494 2.10024 8.38616 2.43212 8.9769 3.02286C9.56764 3.6136 9.89951 4.41481 9.89951 5.25024C9.89951 6.08568 9.56764 6.88689 8.9769 7.47763Z" stroke="black" stroke-width="1.2"/>
</svg>
