<svg viewBox="0 0 10 17" fill="none" xmlns="http://www.w3.org/2000/svg">
<path fill-rule="evenodd" clip-rule="evenodd" d="M2.34254 12.8744C3.00772 13.1193 3.48214 13.7587 3.48214 14.5088C3.48214 15.4704 2.70264 16.2499 1.74107 16.2499C0.779504 16.2499 0 15.4704 0 14.5088C0 13.7508 0.484488 13.1058 1.16072 12.8668L1.16072 0H2.34254L2.34254 12.8744ZM9.28571 1.74107C9.28571 2.49123 8.81128 3.13059 8.1461 3.37546L8.1461 16.25H6.96428L6.96428 3.38307C6.28805 3.14406 5.80356 2.49915 5.80356 1.74107C5.80356 0.779504 6.58307 0 7.54463 0C8.5062 0 9.28571 0.779504 9.28571 1.74107Z" fill="#A0A0A0"/>
</svg>
