<svg viewBox="0 0 20 20" fill="none" xmlns="http://www.w3.org/2000/svg">
<path d="M12.782 1.07471C12.0458 1.02833 11.0601 1 10.0171 1C8.97414 1 7.99252 1.02622 7.25222 1.07471C6.35737 1.13335 5.86658 1.17973 5.75016 1.4931C5.35452 2.04075 3 5.44602 3 8.93198C3 13.0747 6.82259 13.861 7.58832 13.9841C8.54247 14.1276 8.77502 14.4287 8.85768 14.643C9.03328 15.0471 9.06928 16.0878 8.64607 16.9002C8.29487 17.6015 6.10754 18.4563 5.27615 18.5169V18.5168C5.05673 18.5347 4.88819 18.7105 4.8891 18.9209V19.3433C4.8891 19.7474 5.35023 19.806 5.62528 19.8424C5.90034 19.8788 6.21966 19.901 6.6619 19.9253C7.55467 19.9738 8.74138 20 10.0001 20C11.2588 20 12.4455 19.9738 13.3383 19.9253C13.7804 19.901 14.1273 19.8727 14.3749 19.8424C14.6224 19.8121 15.1111 19.7495 15.1111 19.3433L15.1109 18.917C15.1118 18.7065 14.9433 18.5306 14.7239 18.5129C13.8778 18.4442 11.7052 17.5893 11.354 16.8962C10.9456 16.0879 10.9732 15.045 11.1423 14.6389C11.2332 14.4246 11.466 14.1235 12.4117 13.98C13.1775 13.8649 17 13.0807 17 8.92791C17 5.44187 14.6455 2.03682 14.2499 1.48902C14.1609 1.18187 13.6764 1.13337 12.7816 1.07475L12.782 1.07471ZM10.7766 14.4809C10.565 14.9941 10.5291 16.1441 10.9882 17.0656C11.4113 17.9204 13.5267 18.7227 14.4957 18.8843C14.0323 18.9672 12.4394 19.0622 10.015 19.0622C7.59068 19.0622 5.99561 18.9672 5.53436 18.8843C6.50121 18.7185 8.61446 17.9163 9.04182 17.0656C9.50519 16.1441 9.47757 14.9943 9.25343 14.4809C9.08417 14.0767 8.68014 13.7311 7.64986 13.5755C6.61959 13.4198 3.41891 12.565 3.41891 8.92751C3.41891 5.28998 6.14368 1.65246 6.14368 1.65246C6.15002 1.51727 7.88052 1.40408 10.0173 1.40408C12.154 1.40408 13.8867 1.51727 13.8867 1.65669C13.8867 1.65669 16.6115 5.29421 16.6115 8.93174C16.6115 12.5693 13.4129 13.4202 12.3805 13.5797C11.3482 13.7393 10.944 14.0869 10.7769 14.4809L10.7766 14.4809ZM5.33152 19.3309V19.0421C5.47967 19.0986 5.835 19.1492 6.69812 19.1957C7.56123 19.2422 8.7649 19.2704 10.0195 19.2704C11.2739 19.2704 12.4522 19.2442 13.3409 19.1957C14.2294 19.1472 14.5594 19.0987 14.7075 19.0421V19.3391C14.7075 19.4785 12.6089 19.5897 10.0194 19.5897C7.42988 19.5897 5.32948 19.4785 5.32948 19.3411L5.33152 19.3309Z" fill="black"/>
<path d="M13.6494 1.87387C13.6571 1.81543 13.6157 1.76187 13.5573 1.75434C13.499 1.74666 13.4455 1.78784 13.4378 1.84627C13.2812 1.97524 12.0288 2.14878 10.0128 2.14878C7.99682 2.14878 6.75711 1.97745 6.59214 1.84627C6.58461 1.78783 6.53105 1.74667 6.47261 1.75434C6.41418 1.76186 6.37301 1.81543 6.38068 1.87387C6.38068 2.32658 9.16049 2.36262 10.013 2.36262C10.8654 2.36247 13.6494 2.32646 13.6494 1.87387H13.6494Z" fill="black"/>
</svg>
