<svg viewBox="0 0 12 23" fill="none" xmlns="http://www.w3.org/2000/svg">
<path fill-rule="evenodd" clip-rule="evenodd" d="M11.9999 -2.41764e-05C11.9165 0.0209587 11.8368 0.0904181 11.7784 0.208354L8.77432 6.31048C8.42719 7.00491 7.76168 7.48708 7.00456 7.5979L0.258341 8.56964C0.103951 8.60092 0.0437395 8.70217 0.0124604 8.78424C-0.0068806 8.86615 -0.0188215 8.9795 0.094363 9.0905L4.96943 13.845C5.52157 14.3876 5.77722 15.1639 5.64453 15.9209L4.48963 22.6383C4.47029 22.7927 4.54026 22.8842 4.61258 22.9348C4.68489 22.9854 4.79589 23.0264 4.92842 22.9541L10.9608 19.7859C11.2909 19.6208 11.6408 19.5299 11.9999 19.5213V-2.41764e-05Z" fill="#3E14B4"/>
</svg>
