<svg viewBox="0 0 24 22" fill="none" xmlns="http://www.w3.org/2000/svg">
<path d="M12.1431 18.7969C11.4294 18.8073 10.7159 18.7641 10.0088 18.6676C9.95942 18.659 9.90883 18.6608 9.8602 18.6728C9.81157 18.6847 9.76597 18.7067 9.72636 18.7372C8.3218 19.7165 6.91975 20.6984 5.4777 21.6131C5.30026 21.7224 5.11781 21.8219 4.93536 21.9238C4.87174 21.9613 4.80122 21.9858 4.72794 21.9959C4.49551 22.0257 4.36055 21.8915 4.40803 21.6628C4.4955 21.2601 4.61547 20.8674 4.72794 20.4722C5.01535 19.4779 5.30026 18.4837 5.59017 17.4894C5.61516 17.3999 5.60766 17.3602 5.51518 17.3129C4.15116 16.6458 2.94041 15.7057 1.9588 14.5514C0.980173 13.4223 0.334872 12.0458 0.0943761 10.5744C-0.173547 8.90257 0.132862 7.18974 0.964115 5.71244C1.78011 4.256 2.95375 3.02888 4.37554 2.14556C5.88155 1.18406 7.56719 0.53477 9.3315 0.236585C10.6503 -0.00190417 11.9956 -0.0604447 13.3302 0.0625874C15.8147 0.242061 18.1994 1.10813 20.2156 2.56316C21.5815 3.51907 22.6597 4.82692 23.3346 6.34629C24.3968 8.83193 24.1744 11.2505 22.7598 13.5547C21.8454 14.9918 20.5808 16.1759 19.0835 16.9973C17.6641 17.807 16.1084 18.3528 14.4924 18.6079C13.7155 18.7324 12.93 18.7956 12.1431 18.7969Z" fill="#181600"/>
</svg>
