<svg width="10" height="14" viewBox="0 0 10 14" fill="none" xmlns="http://www.w3.org/2000/svg">
<path d="M4.99998 0C2.23683 0 0 2.23687 0 4.99998C0 7.04881 2.74442 11.2594 4.17292 13.2894C4.56772 13.8721 5.43231 13.8721 5.82708 13.2894C7.25561 11.2592 10 7.04885 10 4.99998C10 2.23683 7.76313 0 5.00002 0H4.99998ZM4.99998 6.59772C3.94739 6.59772 3.10153 5.75189 3.10153 4.69927C3.10153 3.6654 3.94736 2.81957 4.99998 2.81957C6.05261 2.81957 6.89844 3.6654 6.89844 4.69927C6.89844 5.75186 6.05261 6.59772 4.99998 6.59772Z" fill="#3D14B1"/>
</svg>
