<svg viewBox="0 0 20 20" fill="none" xmlns="http://www.w3.org/2000/svg">
<path d="M9.99897 3C4.39172 3 0 4.99181 0 7.53722C0.0177574 8.20529 0.292146 8.84236 0.768215 9.32077C1.56295 12.8553 3.31383 16.0104 4.49604 16.9151C5.5187 17.7201 6.95983 18 9.99893 18C13.038 18 14.4792 17.7201 15.5018 16.9281C16.684 16.0124 18.4327 12.8578 19.2296 9.32061C19.7071 8.8419 19.9823 8.20409 20 7.53494C19.9978 4.99401 15.6059 3.00004 9.99866 3.00004L9.99897 3ZM9.99897 17.566C6.92417 17.566 5.66259 17.2774 4.77041 16.5873C3.40681 15.5329 1.86607 12.0656 1.2285 9.35529C2.76935 10.8569 6.12066 11.9006 9.99929 11.9006C13.8779 11.9006 17.2288 10.8568 18.7677 9.35541C18.1301 12.0655 16.5894 15.5328 15.2258 16.5875C14.3359 17.2773 13.0742 17.566 9.9996 17.566L9.99897 17.566ZM0.553412 7.50894C0.553412 6.71917 1.05156 5.99011 1.91702 5.35002C3.61046 4.20002 6.59651 3.43404 10.0012 3.43404C13.4058 3.43404 16.3899 4.1999 18.0834 5.34986C18.9467 5.97903 19.447 6.71901 19.447 7.50878C19.447 9.81087 15.2102 11.6857 10.0014 11.6857C4.79263 11.6857 0.553491 9.81099 0.553491 7.50878L0.553412 7.50894Z" fill="black"/>
<path d="M9.99921 11.1544C14.9246 11.1544 18.9337 9.40341 18.9337 7.24875C18.9337 7.18881 18.8841 7.14038 18.8229 7.14038C18.7618 7.14038 18.7122 7.18881 18.7122 7.24875C18.7122 9.2819 14.803 10.9374 9.99954 10.9374C5.19612 10.9374 1.28686 9.28186 1.28686 7.24875C1.28686 7.18881 1.23729 7.14038 1.17614 7.14038C1.115 7.14038 1.06543 7.18881 1.06543 7.24875C1.06543 9.40341 5.07411 11.1544 9.99987 11.1544H9.99921Z" fill="black"/>
</svg>
