<svg viewBox="0 0 20 20" fill="none" xmlns="http://www.w3.org/2000/svg">
<path d="M9.99518 1.00198C8.1902 0.97893 6.38958 1.17194 4.63828 1.57627C2.88722 2.02713 2 2.67576 2 3.50636V3.5404L2.60928 13.5399H2.60951C2.62586 13.9006 2.7926 14.2413 3.07471 14.4912L3.33254 17.3816C3.34935 17.848 3.76435 18.237 5.6191 18.6015H5.61933C7.05933 18.8718 8.52545 19.0054 9.99509 18.9998C11.468 19.006 12.9377 18.8725 14.3809 18.6015C16.2389 18.237 16.6509 17.848 16.6675 17.3816L16.9253 14.4912H16.9255C17.2076 14.2413 17.3744 13.9005 17.3907 13.5399L18 3.5404V3.50636C18 2.67576 17.1128 2.02714 15.3617 1.57627H15.362C13.6074 1.17129 11.8033 0.978046 9.99501 1.00198H9.99518ZM6.19856 15.2941L6.22869 18.0733C4.866 17.8478 3.99235 17.5391 3.99235 17.3413L3.74457 14.5436C4.51616 14.9079 5.34383 15.1609 6.19859 15.2941H6.19856ZM6.53346 15.3496C6.76793 15.3867 7.01221 15.4207 7.25674 15.4485V18.2277C7.01573 18.2 6.78126 18.1692 6.56036 18.1381L6.53346 15.3496ZM7.59136 15.4856C9.18692 15.6471 10.7969 15.6471 12.3924 15.4856V18.2648C10.7967 18.4227 9.18716 18.4227 7.59136 18.2648V15.4856ZM13.4503 15.3496L13.4235 18.1289C13.2026 18.1629 12.9681 18.1907 12.7271 18.2185V15.4393C12.9782 15.4145 13.2194 15.3837 13.4536 15.3466L13.4503 15.3496ZM13.7617 18.0733L13.7918 15.2941C14.647 15.1651 15.4756 14.9163 16.2493 14.5561L16.0015 17.3539C15.998 17.5516 15.1243 17.8573 13.7616 18.0733H13.7617ZM16.7213 13.5122C16.7056 13.7306 16.5961 13.9342 16.4165 14.0774C15.526 14.7383 13.1724 15.2941 9.99494 15.2941C6.81746 15.2941 4.46406 14.7383 3.57337 14.0866C3.39262 13.9438 3.28168 13.7403 3.26534 13.5214L2.65582 3.50641C2.65582 2.46575 5.94032 1.6196 9.9945 1.6196C14.0487 1.6196 17.3332 2.46575 17.3332 3.50641L16.7213 13.5122Z" fill="black"/>
<path d="M17.0926 3.448C16.9979 3.448 16.9211 3.51997 16.9211 3.60853C16.9211 3.94931 14.6105 4.57282 10.188 4.57282C5.76549 4.57282 3.45488 3.93005 3.45488 3.60853C3.45488 3.51997 3.37811 3.448 3.28341 3.448C3.1887 3.448 3.11194 3.51997 3.11194 3.60853C3.11194 4.57282 7.34263 4.89406 10.1885 4.89406C13.0344 4.89406 17.2651 4.547 17.2651 3.60853C17.2651 3.56593 17.2469 3.52513 17.2148 3.49508C17.1826 3.46481 17.139 3.448 17.0936 3.448L17.0926 3.448Z" fill="black"/>
</svg>
