<svg viewBox="0 0 16 18" fill="none" xmlns="http://www.w3.org/2000/svg">
<path d="M7.99518 0.00197904C6.1902 -0.0210702 4.38958 0.171938 2.63828 0.576265C0.887219 1.02712 0 1.67576 0 2.50636V2.5404L0.609275 12.5399H0.609509C0.625857 12.9006 0.792602 13.2413 1.07471 13.4912L1.33254 16.3816C1.34935 16.848 1.76435 17.237 3.6191 17.6015H3.61933C5.05933 17.8718 6.52545 18.0054 7.99509 17.9998C9.46803 18.006 10.9377 17.8725 12.3809 17.6015C14.2389 17.237 14.6509 16.848 14.6675 16.3816L14.9253 13.4912H14.9255C15.2076 13.2413 15.3744 12.9005 15.3907 12.5399L16 2.5404V2.50636C16 1.67576 15.1128 1.02714 13.3617 0.576265H13.362C11.6074 0.171287 9.80334 -0.0219542 7.99501 0.00197904H7.99518ZM4.19856 14.2941L4.22869 17.0733C2.866 16.8478 1.99235 16.5391 1.99235 16.3413L1.74457 13.5436C2.51616 13.9079 3.34383 14.1609 4.19859 14.2941H4.19856ZM4.53346 14.3496C4.76793 14.3867 5.01221 14.4207 5.25674 14.4485V17.2277C5.01573 17.2 4.78126 17.1692 4.56036 17.1381L4.53346 14.3496ZM5.59136 14.4856C7.18692 14.6471 8.79688 14.6471 10.3924 14.4856V17.2648C8.79671 17.4227 7.18716 17.4227 5.59136 17.2648V14.4856ZM11.4503 14.3496L11.4235 17.1289C11.2026 17.1629 10.9681 17.1907 10.7271 17.2185V14.4393C10.9782 14.4145 11.2194 14.3837 11.4536 14.3466L11.4503 14.3496ZM11.7617 17.0733L11.7918 14.2941C12.647 14.1651 13.4756 13.9163 14.2493 13.5561L14.0015 16.3539C13.998 16.5516 13.1243 16.8573 11.7616 17.0733H11.7617ZM14.7213 12.5122C14.7056 12.7306 14.5961 12.9342 14.4165 13.0774C13.526 13.7383 11.1724 14.2941 7.99494 14.2941C4.81746 14.2941 2.46406 13.7383 1.57337 13.0866C1.39262 12.9438 1.28168 12.7403 1.26534 12.5214L0.655824 2.50641C0.655824 1.46575 3.94032 0.619599 7.9945 0.619599C12.0487 0.619599 15.3332 1.46575 15.3332 2.50641L14.7213 12.5122Z" fill="black"/>
<path d="M15.0924 2.448C14.9977 2.448 14.921 2.51997 14.921 2.60853C14.921 2.94931 12.6104 3.57282 8.18786 3.57282C3.76536 3.57282 1.45475 2.93005 1.45475 2.60853C1.45475 2.51997 1.37799 2.448 1.28328 2.448C1.18858 2.448 1.11182 2.51997 1.11182 2.60853C1.11182 3.57282 5.34251 3.89406 8.18838 3.89406C11.0342 3.89406 15.2649 3.547 15.2649 2.60853C15.2649 2.56593 15.2468 2.52513 15.2147 2.49508C15.1824 2.46481 15.1389 2.448 15.0935 2.448L15.0924 2.448Z" fill="black"/>
</svg>
