<svg viewBox="0 0 19 18" fill="none" xmlns="http://www.w3.org/2000/svg">
<path d="M18.796 7.11952C18.8847 7.03081 18.8753 6.94407 18.8601 6.87984C18.8356 6.81574 18.7884 6.73637 18.6677 6.71189L13.388 5.95153C12.7955 5.86282 12.2766 5.48732 12.003 4.94399L9.65002 0.16841C9.53867 -0.0561365 9.32926 -0.0561365 9.21792 0.16841L6.86693 4.94399C6.59526 5.48745 6.07442 5.8648 5.4819 5.95153L0.202244 6.71203C0.0814172 6.73651 0.0342949 6.81574 0.00981553 6.87997C-0.00532089 6.94407 -0.0146659 7.03279 0.0739133 7.11966L3.88919 10.8406C4.32129 11.2652 4.52137 11.8728 4.41752 12.4652L3.51369 17.7223C3.49855 17.8431 3.55331 17.9147 3.60991 17.9543C3.6665 17.9939 3.75337 18.026 3.85709 17.9694L8.57808 15.49C8.84974 15.3541 9.13853 15.2824 9.43481 15.2824C9.73108 15.2824 10.0197 15.3541 10.2915 15.49L15.0125 17.9694C15.1162 18.026 15.205 17.9939 15.2597 17.9543C15.3163 17.9147 15.3711 17.843 15.3559 17.7223L14.4521 12.4652C14.3484 11.8726 14.5483 11.2651 14.9804 10.8406L18.796 7.11952Z" fill="#3E14B4"/>
</svg>
