<svg viewBox="0 0 14 19" fill="none" xmlns="http://www.w3.org/2000/svg">
<path d="M9.782 0.0747101C9.04581 0.0283316 8.06008 0 7.01711 0C5.97414 0 4.99252 0.0262191 4.25222 0.0747101C3.35737 0.133351 2.86658 0.179729 2.75016 0.493098C2.35452 1.04075 0 4.44602 0 7.93198C0 12.0747 3.82259 12.861 4.58832 12.9841C5.54247 13.1276 5.77502 13.4287 5.85768 13.643C6.03328 14.0471 6.06928 15.0878 5.64607 15.9002C5.29487 16.6015 3.10754 17.4563 2.27615 17.5169V17.5168C2.05673 17.5347 1.88819 17.7105 1.8891 17.9209V18.3433C1.8891 18.7474 2.35023 18.806 2.62528 18.8424C2.90034 18.8788 3.21966 18.901 3.6619 18.9253C4.55467 18.9738 5.74138 19 7.00009 19C8.25879 19 9.4455 18.9738 10.3383 18.9253C10.7804 18.901 11.1273 18.8727 11.3749 18.8424C11.6224 18.8121 12.1111 18.7495 12.1111 18.3433L12.1109 17.917C12.1118 17.7065 11.9433 17.5306 11.7239 17.5129C10.8778 17.4442 8.70516 16.5893 8.35396 15.8962C7.94563 15.0879 7.97325 14.045 8.14235 13.6389C8.23325 13.4246 8.46596 13.1235 9.41171 12.98C10.1775 12.8649 14 12.0807 14 7.92791C14 4.44187 11.6455 1.03682 11.2499 0.489023C11.1609 0.181865 10.6764 0.133372 9.78161 0.0747495L9.782 0.0747101ZM7.7766 13.4809C7.56499 13.9941 7.52914 15.1441 7.98821 16.0656C8.41127 16.9204 10.5267 17.7227 11.4957 17.8843C11.0323 17.9672 9.43935 18.0622 7.01501 18.0622C4.59068 18.0622 2.99561 17.9672 2.53436 17.8843C3.50121 17.7185 5.61446 16.9163 6.04182 16.0656C6.50519 15.1441 6.47757 13.9943 6.25343 13.4809C6.08417 13.0767 5.68014 12.7311 4.64986 12.5755C3.61959 12.4198 0.418909 11.565 0.418909 7.92751C0.418909 4.28998 3.14368 0.652456 3.14368 0.652456C3.15002 0.517272 4.88052 0.404079 7.01727 0.404079C9.15397 0.404079 10.8867 0.517272 10.8867 0.656685C10.8867 0.656685 13.6115 4.29421 13.6115 7.93174C13.6115 11.5693 10.4129 12.4202 9.38052 12.5797C8.34817 12.7393 7.944 13.0869 7.77695 13.4809L7.7766 13.4809ZM2.33152 18.3309V18.0421C2.47967 18.0986 2.835 18.1492 3.69812 18.1957C4.56123 18.2422 5.7649 18.2704 7.01949 18.2704C8.27393 18.2704 9.45221 18.2442 10.3409 18.1957C11.2294 18.1472 11.5594 18.0987 11.7075 18.0421V18.3391C11.7075 18.4785 9.60894 18.5897 7.01941 18.5897C4.42988 18.5897 2.32948 18.4785 2.32948 18.3411L2.33152 18.3309Z" fill="black"/>
<path d="M10.6495 0.873866C10.6572 0.81543 10.6159 0.761867 10.5574 0.754338C10.4991 0.746665 10.4456 0.787835 10.4379 0.846271C10.2813 0.975243 9.02896 1.14878 7.01295 1.14878C4.99694 1.14878 3.75723 0.977453 3.59226 0.846271C3.58474 0.787834 3.53117 0.746666 3.47273 0.754338C3.4143 0.761864 3.37313 0.81543 3.3808 0.873866C3.3808 1.32658 6.16061 1.36262 7.01307 1.36262C7.86554 1.36247 10.6495 1.32646 10.6495 0.873866H10.6495Z" fill="black"/>
</svg>
