<svg width="20" height="15" viewBox="0 0 20 15" fill="none" xmlns="http://www.w3.org/2000/svg">
<path d="M9.99897 0C4.39172 0 0 1.99181 0 4.53722C0.0177574 5.20529 0.292146 5.84236 0.768215 6.32077C1.56295 9.85535 3.31383 13.0104 4.49604 13.9151C5.5187 14.7201 6.95983 15 9.99893 15C13.038 15 14.4792 14.7201 15.5018 13.9281C16.684 13.0124 18.4327 9.85779 19.2296 6.32061C19.7071 5.8419 19.9823 5.20409 20 4.53494C19.9978 1.99401 15.6059 3.84297e-05 9.99866 3.84297e-05L9.99897 0ZM9.99897 14.566C6.92417 14.566 5.66259 14.2774 4.77041 13.5873C3.40681 12.5329 1.86607 9.06561 1.2285 6.35529C2.76935 7.85688 6.12066 8.90059 9.99929 8.90059C13.8779 8.90059 17.2288 7.85684 18.7677 6.35541C18.1301 9.06554 16.5894 12.5328 15.2258 13.5875C14.3359 14.2773 13.0742 14.566 9.9996 14.566L9.99897 14.566ZM0.553412 4.50894C0.553412 3.71917 1.05156 2.99011 1.91702 2.35002C3.61046 1.20002 6.59651 0.434039 10.0012 0.434039C13.4058 0.434039 16.3899 1.1999 18.0834 2.34986C18.9467 2.97903 19.447 3.71901 19.447 4.50878C19.447 6.81087 15.2102 8.68566 10.0014 8.68566C4.79263 8.68566 0.553491 6.81099 0.553491 4.50878L0.553412 4.50894Z" fill="black"/>
<path d="M9.99921 8.15441C14.9246 8.15441 18.9337 6.40341 18.9337 4.24875C18.9337 4.18881 18.8841 4.14038 18.8229 4.14038C18.7618 4.14038 18.7122 4.18881 18.7122 4.24875C18.7122 6.2819 14.803 7.93739 9.99954 7.93739C5.19612 7.93739 1.28686 6.28186 1.28686 4.24875C1.28686 4.18881 1.23729 4.14038 1.17614 4.14038C1.115 4.14038 1.06543 4.18881 1.06543 4.24875C1.06543 6.40341 5.07411 8.15441 9.99987 8.15441H9.99921Z" fill="black"/>
</svg>
